Coordinates
version=1
nRows=19
nColumns=24
inDegrees=yes

Units are S.I. units (second, meters, Newtons, ...)
Angles are in degrees.

endheader
time	pelvis_tilt	pelvis_list	pelvis_rotation	pelvis_tx	pelvis_ty	pelvis_tz	hip_flexion_r	hip_adduction_r	hip_rotation_r	knee_angle_r	ankle_angle_r	subtalar_angle_r	mtp_angle_r	hip_flexion_l	hip_adduction_l	hip_rotation_l	knee_angle_l	ankle_angle_l	subtalar_angle_l	mtp_angle_l	lumbar_extension	lumbar_bending	lumbar_rotation
      1.15683333	      3.19814571	      7.19471067	     -5.86461145	      0.16541769	      1.02228665	      0.25287519	     13.46915898	     -8.08745115	     -0.09966096	    -65.07670122	      4.65246529	    -18.35698864	     -0.15932255	      4.10596388	     11.07412444	     -0.07871780	     -9.86934971	      1.04329150	    -17.62857438	      5.21555739	     -6.48352425	     -8.48112388	      5.86320937
      1.16100000	      3.17142760	      7.05200738	     -5.82611418	      0.17049061	      1.02296269	      0.25280214	     13.96769872	     -7.85613532	     -0.03751590	    -64.50395620	      4.87110488	    -18.21149790	     -0.23750098	      3.65271525	     10.97123098	      0.11940608	     -9.60117703	      1.14495359	    -17.71791721	      5.13102444	     -6.53235980	     -8.34198703	      5.57936239
      1.16516667	      3.14713911	      6.91517847	     -5.79749074	      0.17558799	      1.02360707	      0.25277012	     14.44770807	     -7.62683471	      0.03324234	    -63.86600031	      5.08280866	    -18.08428334	     -0.30858278	      3.19333677	     10.86775318	      0.26583248	     -9.32306789	      1.24117974	    -17.77518706	      5.03432907	     -6.56151856	     -8.21482400	      5.36527589
      1.16933333	      3.12932188	      6.77018552	     -5.75892643	      0.18068008	      1.02424610	      0.25272494	     14.89796495	     -7.39216759	      0.08978156	    -63.15891497	      5.27365690	    -17.93783521	     -0.35459893	      2.72702953	     10.75382299	      0.40255984	     -9.04682527	      1.34833030	    -17.79835932	      4.95238192	     -6.60710709	     -8.07225966	      5.16774651
      1.17350000	      3.07782883	      6.63917773	     -5.72622269	      0.18577863	      1.02478401	      0.25272623	     15.37585105	     -7.16181424	      0.16104160	    -62.40372698	      5.46353595	    -17.79363292	     -0.36695789	      2.30415018	     10.64392492	      0.49165569	     -8.77875217	      1.44088045	    -17.78739705	      4.91676112	     -6.60469455	     -7.94577338	      5.03572950
      1.17766667	      3.04908963	      6.49667358	     -5.66944138	      0.19088199	      1.02533709	      0.25268777	     15.79742455	     -6.93455291	      0.19341746	    -61.57549636	      5.63562045	    -17.61559699	     -0.37626319	      1.84836951	     10.52588932	      0.62163440	     -8.50063562	      1.54444368	    -17.79080309	      4.87635705	     -6.63571863	     -7.80332841	      4.83534124
      1.18183333	      3.05648000	      6.38800027	     -5.59975664	      0.19598191	      1.02587750	      0.25263028	     16.17028660	     -6.76335111	      0.19821468	    -60.70941751	      5.79766223	    -17.42316949	     -0.39168838	      1.33519478	     10.45168208	      0.81759323	     -8.17706165	      1.64249342	    -17.85496333	      4.78866276	     -6.71052957	     -7.70625145	      4.46503820
      1.18600000	      3.02998131	      6.26089874	     -5.53230640	      0.20108747	      1.02634750	      0.25260328	     16.55634829	     -6.55947258	      0.21326424	    -59.77792629	      5.93655967	    -17.25956761	     -0.39979424	      0.86740745	     10.34704696	      0.96648527	     -7.87402782	      1.72822273	    -17.88469968	      4.69867263	     -6.74411464	     -7.58383303	      4.21384473
      1.19016667	      2.99350414	      6.14431261	     -5.45799729	      0.20619224	      1.02676374	      0.25258105	     16.93748207	     -6.36930847	      0.22040155	    -58.79854408	      6.06478235	    -17.10035904	     -0.40117225	      0.41076098	     10.24975189	      1.11278786	     -7.56827222	      1.81286452	    -17.89614209	      4.60497368	     -6.77026850	     -7.47301015	      3.95240728
      1.19433333	      2.98079271	      6.02700458	     -5.37929805	      0.21130131	      1.02717898	      0.25255793	     17.27060426	     -6.18857916	      0.20895127	    -57.76329203	      6.17076890	    -16.95130074	     -0.39722876	     -0.07390828	     10.15095962	      1.24768349	     -7.25779192	      1.90550485	    -17.89309224	      4.52022570	     -6.81662322	     -7.36276290	      3.70228477
      1.19850000	      2.91355727	      5.91198646	     -5.29997336	      0.21642406	      1.02747338	      0.25255444	     17.64667091	     -6.00146134	      0.20479952	    -56.68251721	      6.26976316	    -16.80579429	     -0.39221160	     -0.48938883	     10.04370398	      1.34138623	     -6.96610069	      1.98224611	    -17.85686062	      4.48176243	     -6.79721729	     -7.24711151	      3.54456114
      1.20266667	      2.92422663	      5.80944780	     -5.20751995	      0.22152052	      1.02783068	      0.25252788	     17.91989694	     -5.85027523	      0.16969496	    -55.55708810	      6.33644347	    -16.70298807	     -0.37971843	     -1.00877369	      9.96030648	      1.51767937	     -6.63107491	      2.07372910	    -17.87504062	      4.38452884	     -6.88440660	     -7.16044611	      3.15562014
      1.20683333	      2.85276904	      5.70268362	     -5.11572537	      0.22665285	      1.02803447	      0.25251041	     18.26330221	     -5.68677084	      0.13509978	    -54.38487136	      6.39720641	    -16.57059027	     -0.37274282	     -1.41832001	      9.85835020	      1.61040222	     -6.34084984	      2.15946753	    -17.83512000	      4.34710092	     -6.85241770	     -7.05116032	      3.00190573
      1.21100000	      2.84498302	      5.61701829	     -5.01689428	      0.23175611	      1.02826512	      0.25249882	     18.52596784	     -5.56053171	      0.08414331	    -53.18097056	      6.42057270	    -16.50604016	     -0.35705253	     -1.91375699	      9.78485963	      1.77582546	     -6.01010742	      2.25788694	    -17.83686077	      4.25978084	     -6.91631868	     -6.97800313	      2.62567646
      1.21516667	      2.80788002	      5.52446220	     -4.91689289	      0.23688298	      1.02842114	      0.25248298	     18.79798011	     -5.42916780	      0.02268782	    -51.92884764	      6.43083795	    -16.43318579	     -0.34057442	     -2.36898104	      9.69823546	      1.90195511	     -5.69908629	      2.35404103	    -17.81969943	      4.17972757	     -6.92932038	     -6.88820737	      2.35531552
      1.21933333	      2.73734384	      5.42767466	     -4.81878678	      0.24202532	      1.02851465	      0.25248440	     19.08373870	     -5.29041210	     -0.03871062	    -50.62716161	      6.43786723	    -16.33963309	     -0.33178792	     -2.77809163	      9.59965391	      1.98675064	     -5.40734064	      2.42974970	    -17.76574145	      4.14094976	     -6.90184785	     -6.78894033	      2.18662579
      1.22350000	      2.71795316	      5.35535367	     -4.72174832	      0.24713670	      1.02858287	      0.25249064	     19.31130580	     -5.19024390	     -0.11150316	    -49.31130695	      6.39465552	    -16.33346311	     -0.31513080	     -3.25455053	      9.53196918	      2.12087518	     -5.08504721	      2.54715957	    -17.74049040	      4.06836773	     -6.94227793	     -6.72879998	      1.83605537
      1.22766667	      2.69076637	      5.27219929	     -4.62185461	      0.25227060	      1.02864744	      0.25249735	     19.51647831	     -5.08154555	     -0.19307179	    -47.93738170	      6.34977533	    -16.29327569	     -0.29611707	     -3.71816547	      9.44888919	      2.23719761	     -4.77440136	      2.63603188	    -17.69650510	      3.99591680	     -6.97352904	     -6.65097708	      1.56704572
      1.23183333	      2.59611031	      5.20403738	     -4.52690658	      0.25742560	      1.02854039	      0.25251269	     19.78891259	     -4.98858529	     -0.28160544	    -46.54824561	      6.31386269	    -16.20234601	     -0.28644686	     -4.09222524	      9.37465365	      2.30606404	     -4.49467555	      2.72069746	    -17.63984460	      3.96137681	     -6.91035868	     -6.57855739	      1.40906798
